<?xml version="1.0" encoding="utf-8"?>
<!-- Generator: Adobe Illustrator 23.0.5, SVG Export Plug-In . SVG Version: 6.00 Build 0)  -->
<svg version="1.1" id="Capa_1" xmlns="http://www.w3.org/2000/svg" xmlns:xlink="http://www.w3.org/1999/xlink" x="0px" y="0px"
	 viewBox="0 0 124 124" style="enable-background:new 0 0 124 124;" xml:space="preserve">
<style type="text/css">
	.st0{fill:#FF7F22;}
</style>
<path class="st0" d="M6,123.2h112c3.3,0,6-2.7,6-6v-12c0-3.3-2.7-6-6-6H6c-3.3,0-6,2.7-6,6v12C0,120.4,2.6,123.2,6,123.2z"/>
<path class="st0" d="M70.4,0.9H53.5c-3.4,0-6.2,2.8-6.2,6.2v25c0,3.4-2.8,6.2-6.2,6.2H30.3c-5.2,0-8.1,6-4.9,10.1l31.1,40
	c2.5,3.2,7.4,3.2,9.9,0l32-40c3.2-4.1,0.3-10.1-5-10.1H82.8c-3.4,0-6.2-2.8-6.2-6.2V7C76.6,3.7,73.8,0.9,70.4,0.9z"/>
</svg>
